<svg xmlns="http://www.w3.org/2000/svg" width="32" height="32" viewBox="0 0 32 32" version="1.1">
	<path d="M 5.827 8.844 C 1.415 10.396, 1.117 10.733, 0.493 14.893 C -0.031 18.391, 0.231 19.835, 1.765 21.899 C 3.769 24.596, 8.665 25.815, 11.845 24.410 C 14.364 23.297, 18.958 23.123, 19.572 24.116 C 19.872 24.602, 21.869 25, 24.008 25 C 27.244 25, 28.327 24.438, 30.449 21.656 C 32.915 18.423, 34.038 13.240, 32 14.500 C 31.444 14.844, 30.997 14.092, 30.993 12.809 C 30.987 10.907, 30.046 10.192, 25.656 8.750 C 19.163 6.618, 12.060 6.652, 5.827 8.844 M 10 9 C 8.705 9.837, 8.729 9.971, 10.177 9.985 C 11.100 9.993, 12.788 11.186, 13.927 12.635 L 16 15.270 18.073 12.635 C 19.212 11.186, 20.900 9.993, 21.823 9.985 C 23.271 9.971, 23.295 9.837, 22 9 C 21.175 8.467, 18.475 8.031, 16 8.031 C 13.525 8.031, 10.825 8.467, 10 9 M 4.168 12.595 C 0.838 14.928, 1.456 20.856, 5.250 22.969 C 7.720 24.344, 8.280 24.344, 10.750 22.969 C 14.544 20.856, 15.162 14.928, 11.832 12.595 C 10.580 11.718, 8.855 11, 8 11 C 7.145 11, 5.420 11.718, 4.168 12.595 M 19.585 12.906 C 16.961 15.805, 17.832 21.066, 21.250 22.969 C 23.719 24.344, 24.281 24.344, 26.750 22.969 C 30.544 20.856, 31.162 14.928, 27.832 12.595 C 24.791 10.465, 21.689 10.582, 19.585 12.906 M 4.485 16.048 C 3.124 20.334, 8.923 22.691, 11.340 18.834 C 12.095 17.630, 12.020 16.729, 11.070 15.584 C 9.169 13.294, 5.272 13.569, 4.485 16.048 M 20.930 15.584 C 19.176 17.697, 20.926 20.500, 24 20.500 C 27.074 20.500, 28.824 17.697, 27.070 15.584 C 26.347 14.713, 24.965 14, 24 14 C 23.035 14, 21.653 14.713, 20.930 15.584 M 0.195 17.500 C 0.215 19.150, 0.439 19.704, 0.693 18.731 C 0.947 17.758, 0.930 16.408, 0.656 15.731 C 0.382 15.054, 0.175 15.850, 0.195 17.500 M 5.556 15.910 C 4.600 17.456, 6.120 20, 8 20 C 9.924 20, 10.973 18.266, 10.269 16.250 C 9.766 14.806, 6.388 14.563, 5.556 15.910 M 21.556 15.910 C 20.600 17.456, 22.120 20, 24 20 C 25.924 20, 26.973 18.266, 26.269 16.250 C 25.766 14.806, 22.388 14.563, 21.556 15.910 M 7 17.559 C 7 18.416, 7.450 18.840, 8 18.500 C 8.550 18.160, 9 17.459, 9 16.941 C 9 16.423, 8.550 16, 8 16 C 7.450 16, 7 16.702, 7 17.559 M 23 17.559 C 23 18.416, 23.450 18.840, 24 18.500 C 24.550 18.160, 25 17.459, 25 16.941 C 25 16.423, 24.550 16, 24 16 C 23.450 16, 23 16.702, 23 17.559" stroke="none" fill="#ffffff" fill-rule="evenodd"/>
</svg>