<svg xmlns="http://www.w3.org/2000/svg" width="32" height="32" viewBox="0 0 32 32" version="1.1">
	<path d="M 7 7 C 4.094 9.906, 4.094 22.094, 7 25 C 9.906 27.906, 22.094 27.906, 25 25 C 27.906 22.094, 27.906 9.906, 25 7 C 22.094 4.094, 9.906 4.094, 7 7 M 8.200 8.200 C 6.619 9.781, 6.619 22.219, 8.200 23.800 C 8.891 24.491, 12.200 25, 16 25 C 19.800 25, 23.109 24.491, 23.800 23.800 C 25.381 22.219, 25.381 9.781, 23.800 8.200 C 22.219 6.619, 9.781 6.619, 8.200 8.200 M 21 10 C 21 10.550, 21.477 11, 22.059 11 C 22.641 11, 22.840 10.550, 22.500 10 C 22.160 9.450, 21.684 9, 21.441 9 C 21.198 9, 21 9.450, 21 10 M 12 12 C 10.900 13.100, 10 14.900, 10 16 C 10 18.576, 13.424 22, 16 22 C 18.576 22, 22 18.576, 22 16 C 22 13.424, 18.576 10, 16 10 C 14.900 10, 13.100 10.900, 12 12 M 13.040 13.452 C 10.383 16.653, 14.285 21.570, 17.750 19.388 C 18.712 18.782, 19.650 17.525, 19.833 16.595 C 20.578 12.807, 15.518 10.466, 13.040 13.452" stroke="none" fill="#ffffff" fill-rule="evenodd"/>
</svg>