<svg xmlns="http://www.w3.org/2000/svg" width="32" height="32" viewBox="0 0 32 32" version="1.1">
	<path d="M 11.500 4.903 C 10.400 5.386, 8.386 6.980, 7.025 8.445 C 4.622 11.030, 4.182 14.037, 5.114 21.500 C 5.252 22.600, 5.063 24.400, 4.694 25.500 C 4.059 27.395, 4.467 27.500, 12.493 27.500 C 20.724 27.500, 21.053 27.408, 24.231 24.231 C 27.045 21.417, 27.500 20.270, 27.500 16 C 27.500 11.787, 27.033 10.572, 24.407 7.945 C 21.105 4.643, 15.239 3.261, 11.500 4.903 M 9.292 9.508 C 6.150 12.650, 5.851 13.408, 6.430 16.758 C 6.785 18.816, 7.107 21.503, 7.145 22.730 C 7.194 24.319, 7.830 24.962, 9.357 24.966 C 10.536 24.970, 13.184 25.253, 15.242 25.595 C 18.579 26.150, 19.362 25.838, 22.492 22.708 C 27.591 17.609, 26.831 10.516, 20.855 7.425 C 16.325 5.082, 13.144 5.656, 9.292 9.508 M 10.391 12.425 C 9.567 14.571, 12.361 18.618, 15.946 20.472 C 19.196 22.153, 22 21.595, 22 19.268 C 22 18.125, 21.281 17.894, 19.087 18.333 C 15.827 18.985, 13.500 17.046, 13.500 13.677 C 13.500 11.189, 11.217 10.270, 10.391 12.425" stroke="none" fill="#ffffff" fill-rule="evenodd"/>
</svg>