<svg xmlns="http://www.w3.org/2000/svg" width="32" height="32" viewBox="0 0 32 32" version="1.1">
	<path d="M 14.557 4.223 C 13.701 5.445, 13 7.920, 13 9.723 C 13 12.552, 12.658 13, 10.500 13 C 8.500 13, 8 13.500, 8 15.500 C 8 17.500, 8.500 18, 10.500 18 C 12.889 18, 13 18.267, 13 24 C 13 29.733, 13.111 30, 15.500 30 C 17.889 30, 18 29.733, 18 24 C 18 18.667, 18.222 18, 20 18 C 21.100 18, 22 17.587, 22 17.082 C 22 16.577, 22.273 15.452, 22.607 14.582 C 23.067 13.382, 22.568 13, 20.541 13 C 18.214 13, 17.908 12.643, 18.184 10.250 C 18.410 8.281, 19.139 7.409, 20.750 7.180 C 22.379 6.949, 23 6.190, 23 4.430 C 23 2.327, 22.537 2, 19.557 2 C 17.132 2, 15.653 2.658, 14.557 4.223" stroke="none" fill="#ffffff" fill-rule="evenodd"/>
</svg>