<svg xmlns="http://www.w3.org/2000/svg" width="48" height="48" viewBox="0 0 48 48" version="1.1">
	<path d="M 9.455 6.455 C 7.390 8.519, 7 9.869, 7 14.955 C 7 20.808, 6.917 21, 4.383 21 C 2.126 21, 1.864 21.309, 2.478 23.250 C 2.869 24.488, 3.652 28.048, 4.218 31.163 C 4.891 34.862, 6.158 37.815, 7.874 39.679 C 10.440 42.468, 10.700 42.525, 19.250 42.164 C 25.899 41.883, 28 41.459, 28 40.397 C 28 39.313, 26.134 39, 19.655 39 C 10.085 39, 8.604 38.086, 7.497 31.500 C 7.128 29.300, 6.609 26.712, 6.345 25.750 C 5.953 24.321, 6.519 24, 9.433 24 C 11.937 24, 13 23.553, 13 22.500 C 13 21.675, 12.325 21, 11.500 21 C 10.339 21, 10 19.689, 10 15.200 C 10 12.010, 10.540 8.860, 11.200 8.200 C 12.850 6.550, 15.503 6.696, 17.016 8.519 C 18.043 9.757, 17.973 10.372, 16.638 11.847 C 14.181 14.563, 14.578 15, 19.500 15 C 21.975 15, 24 14.798, 24 14.550 C 24 14.303, 22.651 12.101, 21.002 9.658 C 16.679 3.253, 13.530 2.379, 9.455 6.455 M 17.694 21.639 C 15.945 23.388, 19.168 24, 30.126 24 C 41.079 24, 42.093 24.154, 41.655 25.750 C 41.391 26.713, 40.872 29.300, 40.503 31.500 C 39.654 36.550, 37.480 39, 33.845 39 C 29.997 39, 30.132 41.576, 34.021 42.354 C 38.760 43.302, 42.042 39.330, 43.835 30.478 C 44.389 27.740, 45.156 24.488, 45.538 23.250 L 46.233 21 32.283 21 C 24.611 21, 18.046 21.288, 17.694 21.639" stroke="none" fill="#1969cd" fill-rule="evenodd"/>
</svg>