<svg xmlns="http://www.w3.org/2000/svg" width="48" height="48" viewBox="0 0 48 48" version="1.1">
	<path d="M 8.655 8.829 C 7.575 10.022, 7 12.412, 7 15.706 C 7 18.974, 6.471 21.194, 5.500 22 C 3.316 23.813, 3.316 41, 5.500 41 C 6.325 41, 7 40.325, 7 39.500 C 7 38.667, 7.889 38, 9 38 C 10.111 38, 11 37.333, 11 36.500 C 11 35.654, 10.106 35, 8.950 35 C 7.086 35, 6.927 34.478, 7.200 29.250 L 7.500 23.500 24 23.500 L 40.500 23.500 40.799 29.221 L 41.098 34.943 27.546 35.221 C 9.538 35.592, 9.504 37.407, 27.497 37.778 C 38.592 38.007, 41 38.319, 41 39.528 C 41 40.338, 41.675 41, 42.500 41 C 44.684 41, 44.684 23.813, 42.500 22 C 41.517 21.184, 41 18.955, 41 15.533 C 41 9.805, 39.084 7, 35.171 7 C 32.289 7, 32.357 9.770, 35.250 10.180 C 37.170 10.453, 37.545 11.197, 37.805 15.250 C 37.988 18.107, 37.689 20, 37.055 20 C 36.475 20, 36 19.395, 36 18.655 C 36 15.462, 32.641 14.220, 24 14.220 C 15.359 14.220, 12 15.462, 12 18.655 C 12 19.395, 11.525 20, 10.945 20 C 10.311 20, 10.012 18.107, 10.195 15.250 L 10.500 10.500 20.250 10.214 C 28.012 9.986, 30 9.629, 30 8.464 C 30 7.278, 28.131 7, 20.155 7 C 11.887 7, 10.045 7.293, 8.655 8.829 M 15.713 17.621 C 14.163 19.170, 15.165 20, 18.583 20 C 21.002 20, 22.033 19.594, 21.756 18.750 C 21.297 17.352, 16.818 16.515, 15.713 17.621 M 26.713 17.621 C 25.163 19.170, 26.165 20, 29.583 20 C 32.002 20, 33.033 19.594, 32.756 18.750 C 32.297 17.352, 27.818 16.515, 26.713 17.621" stroke="none" fill="#1969cd" fill-rule="evenodd"/>
</svg>