<svg xmlns="http://www.w3.org/2000/svg" width="24" height="24" viewBox="0 0 48 48" version="1.1">
	<path d="M 16.289 6.859 C 15.305 7.882, 13.269 9.013, 11.765 9.374 C 9.869 9.829, 8.832 10.869, 8.384 12.765 C 8.028 14.269, 6.820 16.511, 5.698 17.746 C 3.886 19.742, 3.809 20.274, 5.009 22.517 C 6.047 24.456, 6.086 25.314, 5.180 26.220 C 3.500 27.900, 3.717 29.649, 5.859 31.711 C 6.882 32.695, 8.003 34.688, 8.350 36.140 C 9.051 39.065, 11.305 40.355, 14.141 39.455 C 16.691 38.646, 16.478 37.207, 13.750 36.820 C 12.139 36.591, 11.410 35.719, 11.184 33.750 C 11.009 32.237, 10.011 30.541, 8.964 29.981 C 7.383 29.134, 7.242 28.563, 8.133 26.607 C 8.904 24.915, 8.892 23.667, 8.090 22.168 C 7.167 20.443, 7.310 19.905, 8.921 19.042 C 9.991 18.469, 11.009 16.763, 11.184 15.250 C 11.432 13.090, 12.090 12.432, 14.250 12.184 C 15.763 12.009, 17.469 10.991, 18.042 9.921 C 18.905 8.310, 19.443 8.167, 21.168 9.090 C 23.711 10.451, 28 8.838, 28 6.521 C 28 4.680, 27.555 4.636, 25.011 6.225 C 23.464 7.192, 22.792 7.192, 21.825 6.225 C 20.101 4.501, 18.367 4.700, 16.289 6.859 M 32.250 9.662 C 30.257 10.466, 30.800 11.832, 33.250 12.180 C 34.861 12.409, 35.590 13.281, 35.816 15.250 C 35.991 16.763, 36.989 18.459, 38.036 19.019 C 39.617 19.866, 39.758 20.437, 38.867 22.393 C 38.096 24.085, 38.108 25.333, 38.910 26.832 C 39.833 28.557, 39.690 29.095, 38.079 29.958 C 37.009 30.531, 35.991 32.237, 35.816 33.750 C 35.568 35.910, 34.910 36.568, 32.750 36.816 C 31.237 36.991, 29.531 38.009, 28.958 39.079 C 28.095 40.690, 27.557 40.833, 25.832 39.910 C 23.289 38.549, 19 40.162, 19 42.479 C 19 44.316, 20.162 44.438, 21.825 42.775 C 22.792 41.808, 23.464 41.808, 25.011 42.775 C 27.661 44.430, 28.610 44.324, 30.711 42.141 C 31.695 41.118, 33.731 39.987, 35.235 39.626 C 37.127 39.172, 38.172 38.127, 38.626 36.235 C 38.987 34.731, 40.118 32.695, 41.141 31.711 C 43.283 29.649, 43.500 27.900, 41.820 26.220 C 40.914 25.314, 40.953 24.456, 41.991 22.517 C 43.200 20.258, 43.114 19.750, 41.171 17.682 C 39.977 16.411, 39 14.645, 39 13.757 C 39 10.514, 35.461 8.367, 32.250 9.662 M 25.968 22.420 L 21.612 26.840 19.171 24.920 C 14.231 21.034, 13.347 23.823, 18.054 28.443 L 21.052 31.386 26.979 25.521 C 32.252 20.303, 33.515 18, 31.103 18 C 30.675 18, 28.364 19.989, 25.968 22.420" stroke="none" fill="#19af05" fill-rule="evenodd"/>
</svg>