<svg xmlns="http://www.w3.org/2000/svg" width="48" height="48" viewBox="0 0 48 48" version="1.1">
	<path d="M 20.168 4.595 C 18.376 5.850, 17.956 6.969, 18.195 9.845 C 18.430 12.658, 17.982 13.920, 16.250 15.323 C 14.347 16.864, 14 18.118, 14 23.450 C 14 30.224, 15.505 32.793, 18.737 31.540 C 20.415 30.890, 20.416 30.795, 18.750 29.568 C 16.522 27.928, 16.284 18.839, 18.422 17.064 C 19.218 16.404, 21.969 16.020, 24.664 16.192 C 28.802 16.456, 29.671 16.892, 30.806 19.270 C 31.533 20.793, 32.549 21.779, 33.064 21.460 C 34.660 20.474, 34.101 18.009, 31.750 15.670 C 30.076 14.004, 29.578 12.503, 29.805 9.810 C 30.044 6.970, 29.619 5.846, 27.832 4.595 C 24.957 2.581, 23.043 2.581, 20.168 4.595 M 21.709 6.624 C 20.432 7.901, 20.966 11.773, 22.500 12.362 C 25.172 13.387, 27.128 11.915, 26.804 9.122 C 26.505 6.547, 23.339 4.995, 21.709 6.624 M 31.639 24.694 C 31.288 25.046, 31 26.158, 31 27.167 C 31 28.175, 30.325 29, 29.500 29 C 28.321 29, 28 30.389, 28 35.500 C 28 40.611, 27.679 42, 26.500 42 C 25.389 42, 25 40.833, 25 37.500 C 25 35.025, 24.550 33, 24 33 C 23.450 33, 23 35.025, 23 37.500 C 23 40.749, 22.600 42, 21.560 42 C 20.619 42, 20.013 40.703, 19.810 38.250 C 19.640 36.188, 19.050 34.500, 18.500 34.500 C 17.032 34.500, 16.671 41.899, 18.058 43.570 C 19.520 45.331, 28.101 45.499, 29.800 43.800 C 30.460 43.140, 31 40.183, 31 37.229 C 31 33.787, 31.539 31.318, 32.500 30.357 C 33.325 29.532, 34 28.016, 34 26.988 C 34 24.960, 32.668 23.666, 31.639 24.694" stroke="none" fill="#1969cd" fill-rule="evenodd"/>
</svg>